<?xml version="1.0" standalone="no"?><!DOCTYPE svg PUBLIC "-//W3C//DTD SVG 1.1//EN" "http://www.w3.org/Graphics/SVG/1.1/DTD/svg11.dtd"><svg t="1745910652354" class="icon" viewBox="0 0 1024 1024" version="1.1" xmlns="http://www.w3.org/2000/svg" p-id="2644" xmlns:xlink="http://www.w3.org/1999/xlink" width="200" height="200"><path d="M514.56 397.824m-308.736 0a308.736 308.736 0 1 0 617.472 0 308.736 308.736 0 1 0-617.472 0Z" fill="#FFFFFF" p-id="2645"></path><path d="M524.8 27.136c-204.8 0-361.984 170.496-361.984 368.64 0 252.416 361.984 593.92 361.984 593.92s361.984-334.336 361.984-593.92c0-197.632-157.184-368.64-361.984-368.64z m0 642.048c-150.016 0-272.896-116.224-280.064-272.896 0-150.016 116.224-272.896 272.896-280.064 150.016 0 272.896 116.224 280.064 272.896v6.656c0 150.528-122.88 273.408-272.896 273.408z" fill="#2A70F7" p-id="2646"></path><path d="M654.336 239.104c-6.656 0-6.656 0-13.824-6.656-61.44-20.48-116.224-20.48-177.664-6.656-20.48 6.656-47.616 13.824-68.096 20.48s-20.48 13.824-20.48 34.304v245.76c0 27.136 0 27.136 27.136 40.96v27.136s6.656 6.656 13.824 6.656h34.304c6.656 0 6.656 0 13.824-6.656 0 0 6.656-6.656 0-13.824v-20.48h122.88v34.304s6.656 6.656 13.824 6.656h34.304c6.656 0 6.656 0 13.824-6.656 0 0 6.656-6.656 0-13.824v-20.48c20.48-6.656 27.136-13.824 27.136-27.136V266.24c-0.512-13.824-7.168-20.48-20.992-27.136z m-190.976 13.312c0-6.656 6.656-13.824 13.824-13.824h88.576c6.656 0 13.824 6.656 13.824 13.824 0 6.656 0 13.824-6.656 13.824H477.184c-7.168 0-13.824-6.656-13.824-13.824z m-34.304 266.24c-13.824 0-27.136-6.656-27.136-20.48-6.656-13.824 0-27.136 6.656-34.304 6.656-6.656 20.48-13.824 34.304-6.656 13.824 6.656 20.48 20.48 20.48 34.304s-13.824 27.136-34.304 27.136z m218.624-13.312c-6.656 6.656-20.48 13.824-27.136 13.824-13.824 0-20.48 0-27.136-6.656-13.824-13.824-13.824-34.304 0-47.616 6.656-6.656 13.824-6.656 20.48-6.656 13.824 0 20.48 6.656 27.136 13.824 6.656 5.632 6.656 19.456 6.656 33.28z m0-116.224c0 13.824-6.656 20.48-20.48 20.48H415.744c-13.824 0-20.48-6.656-20.48-20.48V321.024c0-13.824 6.656-20.48 20.48-20.48h218.624c13.824 0 20.48 6.656 20.48 20.48L647.68 389.12z" fill="#2A70F7" p-id="2647"></path></svg>