<?xml version="1.0" standalone="no"?><!DOCTYPE svg PUBLIC "-//W3C//DTD SVG 1.1//EN" "http://www.w3.org/Graphics/SVG/1.1/DTD/svg11.dtd"><svg t="1736330133867" class="icon" viewBox="0 0 1024 1024" version="1.1" xmlns="http://www.w3.org/2000/svg" p-id="37291" width="32" height="32" xmlns:xlink="http://www.w3.org/1999/xlink"><path d="M43.008 285.184c-20.48 21.504-19.968 55.296 1.536 76.288 20.992 19.968 53.76 19.968 74.752 0L296.96 183.808v785.92c0 29.696 24.064 53.76 53.76 53.76S404.48 999.424 404.48 969.728V53.76C403.968 24.064 379.904 0 350.208 0 335.872 0 322.56 5.632 312.32 15.872L43.008 285.184z m937.984 453.632c20.48-21.504 19.968-55.296-1.536-76.288-20.992-19.968-53.76-19.968-74.752 0L727.04 840.192V53.76C727.04 24.064 702.976 0 673.28 0S619.52 24.064 619.52 53.76v915.968c0 29.696 24.064 53.76 53.76 53.76 14.336 0 28.16-5.632 37.888-15.872l269.824-268.8z" p-id="37292"></path></svg>