<?xml version="1.0" standalone="no"?><!DOCTYPE svg PUBLIC "-//W3C//DTD SVG 1.1//EN" "http://www.w3.org/Graphics/SVG/1.1/DTD/svg11.dtd"><svg t="1745910622739" class="icon" viewBox="0 0 1024 1024" version="1.1" xmlns="http://www.w3.org/2000/svg" p-id="1507" xmlns:xlink="http://www.w3.org/1999/xlink" width="200" height="200"><path d="M577.962188 922.058437h5.996562L512 1024l-71.95875-95.945C188.185624 886.079062 14.285311 652.213124 50.264686 400.357498S326.106562-31.395003 577.962188 4.584372s425.755939 275.841876 389.776563 527.697502c-29.982813 203.883126-185.893438 359.793751-389.776563 389.776563z" fill="#387CFF" p-id="1508"></path><path d="M673.907188 682.195937h47.9725v41.975937H308.116874v-41.975937h47.972501V244.446873c0-11.993125 5.996563-23.98625 11.993125-29.982813s17.989688-11.993125 29.982812-11.993125h233.865938c11.993125 0 23.98625 5.996563 29.982813 11.993125 5.996563 5.996563 11.993125 17.989688 11.993125 29.982813v437.749064zM488.01375 616.233749l89.948438-89.948438H512v-59.965625L446.037812 550.271561h71.958751L488.01375 616.233749z m143.9175-347.800626H398.065312v131.924375h233.865938V268.433123z" fill="#FFFFFF" p-id="1509"></path></svg>