<?xml version="1.0" standalone="no"?><!DOCTYPE svg PUBLIC "-//W3C//DTD SVG 1.1//EN" "http://www.w3.org/Graphics/SVG/1.1/DTD/svg11.dtd"><svg t="1745910840098" class="icon" viewBox="0 0 1024 1024" version="1.1" xmlns="http://www.w3.org/2000/svg" p-id="16324" xmlns:xlink="http://www.w3.org/1999/xlink" width="200" height="200"><path d="M535.27241 618.35664a25.134528 25.134528 0 0 1 30.254525 10.007266H605.090544v-23.272711h-69.818134zM628.363256 628.363906h37.236338a28.392708 28.392708 0 0 1 23.272711-11.636356 27.229072 27.229072 0 0 1 9.774539 2.094544V605.091195H628.363256zM543.650586 418.909503a90.996302 90.996302 0 0 0 29.556344-19.549077 95.883571 95.883571 0 0 0 20.247258-29.090889 88.203576 88.203576 0 0 0 7.447268-35.839976 84.479942 84.479942 0 0 0-7.21454-35.374521 80.989036 80.989036 0 0 0-19.549078-27.694527 91.694483 91.694483 0 0 0-29.090889-18.618169 98.210842 98.210842 0 0 0-36.538157-6.749086h-128.930821v180.130786h128.930821a86.341759 86.341759 0 0 0 35.141794-7.214541z" fill="#5C88FF" p-id="16325"></path><path d="M511.999699 116.364255a325.81796 325.81796 0 1 0 325.817959 325.81796A325.81796 325.81796 0 0 0 511.999699 116.364255z m-132.421728 558.545074h-50.734511V200.844198h179.665332a151.039897 151.039897 0 0 1 61.672685 11.869082 142.196267 142.196267 0 0 1 44.916333 31.185434 127.069004 127.069004 0 0 1 27.229072 43.51997 133.352636 133.352636 0 0 1 9.309085 48.40724 139.636268 139.636268 0 0 1-9.541812 50.269056 135.912635 135.912635 0 0 1-27.694526 43.519971 131.258092 131.258092 0 0 1-44.916333 30.487252 157.323529 157.323529 0 0 1-60.974504 11.403628h-128.930821z m343.970674-29.090889h-6.050905a29.090889 29.090889 0 0 1-58.181778 0h-87.272668a29.090889 29.090889 0 0 1-58.181779 0h-6.050905a14.196354 14.196354 0 0 1-12.799991-20.712713l14.894535-29.556344a13.963627 13.963627 0 0 1 12.567265-7.912722h27.461799a6.749086 6.749086 0 0 1-6.981813-6.981813 80.756309 80.756309 0 0 1 53.527236-22.109076h38.399974a168.959885 168.959885 0 0 1 53.527236 22.109076 6.981813 6.981813 0 0 1-6.981813 6.981813h27.229072a13.963627 13.963627 0 0 1 12.567264 7.912722l14.894535 29.556344a14.196354 14.196354 0 0 1-12.567264 20.712713z" fill="#5C88FF" p-id="16326"></path><path d="M511.999699 0.000698a442.181517 442.181517 0 0 0-116.363558 869.003044A289.745257 289.745257 0 0 1 511.999699 1024a289.745257 289.745257 0 0 1 116.363557-154.996258A442.181517 442.181517 0 0 0 511.999699 0.000698z m0 814.544899a372.363382 372.363382 0 1 1 372.363382-372.363382 372.363382 372.363382 0 0 1-372.363382 372.363382z" fill="#5C88FF" p-id="16327"></path></svg>